<?xml version="1.0" encoding="UTF-8" standalone="no"?>
<!-- Created with Inkscape (http://www.inkscape.org/) -->

<svg
   width="799.14514mm"
   height="97.478798mm"
   viewBox="0 0 799.14514 97.478798"
   version="1.1"
   id="svg1"
   xml:space="preserve"
   xmlns="http://www.w3.org/2000/svg"
   xmlns:svg="http://www.w3.org/2000/svg"><defs
     id="defs1" /><g
     id="layer4"
     style="display:inline"
     transform="translate(-47.069076,-80.4881)"><path
       id="path1"
       style="display:inline;fill:#ffffff;fill-opacity:1;stroke-width:0.276017"
       d="M 96.623157,80.4881 A 49.554333,48.739296 0 0 0 47.069076,129.22724 49.554333,48.739296 0 0 0 96.623157,177.9669 49.554333,48.739296 0 0 0 146.17776,129.22724 49.554333,48.739296 0 0 0 96.623157,80.4881 Z M 76.26626,110.70589 h 5.238957 l 5.887496,16.10393 H 82.89583 l -0.95033,-2.72335 h -6.142777 l -0.927076,2.72335 h -4.496883 z m 12.957866,0 h 7.324617 c 4.659167,0 8.136457,2.84176 8.136457,8.07548 0,5.18635 -3.47729,8.02845 -8.136457,8.02845 h -7.324617 z m 18.288804,0 h 3.73207 l 5.37745,6.37067 5.37797,-6.37067 h 3.73207 v 16.10393 h -4.45089 v -8.95191 l -4.28811,5.25756 h -0.74156 l -4.28862,-5.25756 v 8.95191 h -4.45038 z m -13.83843,3.93155 v 8.24084 h 2.688725 c 2.22527,0 3.732075,-1.49189 3.732075,-4.09691 0,-2.65238 -1.506805,-4.14393 -3.732075,-4.14393 z m -14.788761,0.54467 -1.970423,5.56503 h 3.940845 z m 0.628902,15.81143 c 5.025829,0 8.839254,3.60317 8.839254,8.4553 0,4.85213 -3.813425,8.4553 -8.839254,8.4553 -5.025829,0 -8.814449,-3.60317 -8.814449,-8.4553 0,-4.85213 3.78862,-8.4553 8.814449,-8.4553 z m 35.837089,0 c 2.85387,0 5.12717,1.00929 6.84454,2.49856 l -2.19728,3.33881 c -1.06073,-0.76865 -2.39958,-1.58543 -4.47053,-1.58543 -2.65181,0 -4.3186,1.89738 -4.3186,4.1553 0,2.25793 1.66679,4.15582 4.3186,4.15582 2.07095,0 3.4098,-0.81677 4.47053,-1.58543 l 2.19728,3.33881 c -1.71737,1.48927 -3.99067,2.49804 -6.84454,2.49804 -5.22787,0 -9.1674,-3.62717 -9.1674,-8.40724 0,-4.78007 3.93953,-8.40724 9.1674,-8.40724 z m -17.779793,0.0243 c 2.449773,0 4.899833,0.67254 6.238383,1.29708 l -1.36375,3.81941 c -1.36379,-0.72061 -3.384576,-1.29708 -5.076688,-1.29708 -1.313282,0 -1.86862,0.40797 -1.86862,1.08055 0,0.52845 0.35326,0.79308 1.262455,1.0573 l 2.954859,0.81649 c 3.207434,0.88875 4.495854,2.40225 4.495854,4.61212 0,3.14668 -2.85376,5.40432 -7.273463,5.40432 -2.576053,0 -5.278618,-0.81646 -6.415112,-1.41697 l 1.136365,-4.03541 c 1.338537,0.86474 3.283251,1.63298 5.354195,1.63298 1.414303,0 2.247925,-0.40833 2.247925,-1.29708 0,-0.5765 -0.505069,-0.93649 -1.565796,-1.22473 l -2.727482,-0.74466 c -2.904374,-0.79268 -4.369243,-2.18604 -4.369243,-4.56406 0,-2.88245 2.37363,-5.14026 6.970118,-5.14026 z m -18.057296,4.32377 c -2.37401,0 -4.09174,1.77726 -4.09174,4.10724 0,2.32999 1.71773,4.10776 4.09174,4.10776 2.399265,0 4.091223,-1.77777 4.091223,-4.10776 0,-2.32998 -1.691958,-4.10724 -4.091223,-4.10724 z" /></g><g
     id="layer1"><path
       d="M 165.32152,4.4922536 133.01562,93.43159 h 29.03607 l 4.44697,-13.602489 h 31.65194 l 4.44697,13.602489 h 29.03607 L 199.32774,4.4922536 Z m 8.23997,54.4099454 8.76314,-26.158628 8.76314,26.158628 z M 283.16611,4.4922536 H 240.13517 V 93.43159 h 43.03094 c 26.28942,0 45.90839,-15.695179 45.90839,-44.338877 0,-28.905284 -19.61897,-44.6004594 -45.90839,-44.6004594 z M 281.85818,68.580891 H 268.90966 V 29.342949 h 12.94852 c 10.59425,0 17.52628,7.193623 17.52628,19.749764 0,12.294555 -6.93203,19.488178 -17.52628,19.488178 z M 419.19092,49.615886 V 93.43159 h 28.77449 V 4.4922536 H 424.42265 L 395.64816,37.190538 366.87367,4.4922536 H 343.3309 V 93.43159 h 28.77449 V 49.615886 l 21.18849,25.373869 h 4.70855 z M 521.2096,42.683849 h -56.50264 v 22.234834 h 56.50264 z m 57.67986,52.578843 c 26.02783,0 45.6468,-19.618971 45.6468,-46.039186 0,-26.420214 -19.61897,-46.0391842 -45.6468,-46.0391842 -26.02784,0 -45.64681,19.6189702 -45.64681,46.0391842 0,26.420215 19.61897,46.039186 45.64681,46.039186 z m 0,-27.07418 c -10.33266,0 -17.65708,-8.239968 -17.65708,-18.965006 0,-10.725037 7.32442,-18.965005 17.65708,-18.965005 10.33265,0 17.65707,8.239968 17.65707,18.965005 0,10.725038 -7.32442,18.965006 -17.65707,18.965006 z m 62.2576,-5.493312 -6.67045,24.327524 c 6.01648,3.269828 20.27294,7.716798 33.74463,7.716798 23.67356,0 38.0608,-12.686937 38.0608,-30.213218 0,-11.64059 -5.88569,-19.880557 -22.758,-24.98149 l -14.77963,-4.446967 c -3.793,-1.177138 -4.97014,-2.354276 -4.97014,-4.316173 0,-2.877449 2.09269,-4.57776 6.80125,-4.57776 8.23996,0 18.31104,3.139035 25.76624,7.193622 l 7.97839,-23.019592 c -7.06283,-3.4006214 -19.88056,-7.0628291 -32.4367,-7.0628291 -23.93515,0 -36.88367,12.5561411 -36.88367,28.6436971 0,13.471693 7.97838,20.665316 22.49642,25.112283 l 13.99487,4.316173 c 3.53141,1.046346 5.7549,2.615863 5.7549,4.839347 0,3.923794 -3.13904,5.624105 -8.50156,5.624105 -10.33266,0 -20.27294,-4.185381 -27.59735,-9.15552 z M 745.12761,48.96192 c 0,-10.332658 7.32441,-19.357385 19.61897,-19.357385 10.20186,0 16.34914,4.708553 21.58086,8.632348 L 799.14517,17.179187 C 790.38203,9.3315996 778.74144,3.1843218 763.30785,3.1843218 c -27.33576,0 -47.87029,19.7497632 -47.87029,45.7775982 0,26.027835 20.53453,45.777602 47.87029,45.777602 15.43359,0 27.07418,-6.14728 35.83732,-13.994869 L 786.32744,59.686958 c -5.23172,3.923794 -11.379,8.632347 -21.58086,8.632347 -12.29456,0 -19.61897,-9.024727 -19.61897,-19.357385 z"
       id="text1"
       style="font-weight:900;font-size:96px;font-family:'HvDTrial Pluto Sans';-inkscape-font-specification:'HvDTrial Pluto Sans, Heavy';white-space:pre;fill:#ffffff;stroke-width:1.36243"
       aria-label="ADM-OSC" /></g></svg>
