<?xml version="1.0" encoding="UTF-8" standalone="no"?>
<!-- Created with Inkscape (http://www.inkscape.org/) -->

<svg
   width="99.108673mm"
   height="97.4786mm"
   viewBox="0 0 99.108673 97.4786"
   version="1.1"
   id="svg1"
   xml:space="preserve"
   sodipodi:docname="ADM-OSC-logo-black.svg"
   inkscape:version="1.4 (86a8ad7, 2024-10-11)"
   xmlns:inkscape="http://www.inkscape.org/namespaces/inkscape"
   xmlns:sodipodi="http://sodipodi.sourceforge.net/DTD/sodipodi-0.dtd"
   xmlns="http://www.w3.org/2000/svg"
   xmlns:svg="http://www.w3.org/2000/svg"><sodipodi:namedview
     id="namedview1"
     pagecolor="#ffffff"
     bordercolor="#000000"
     borderopacity="0.25"
     inkscape:showpageshadow="2"
     inkscape:pageopacity="0.0"
     inkscape:pagecheckerboard="true"
     inkscape:deskcolor="#d1d1d1"
     inkscape:document-units="mm"
     inkscape:zoom="2.4727009"
     inkscape:cx="187.24465"
     inkscape:cy="184.21153"
     inkscape:window-width="1920"
     inkscape:window-height="1171"
     inkscape:window-x="-9"
     inkscape:window-y="-9"
     inkscape:window-maximized="1"
     inkscape:current-layer="svg1"
     showborder="true" /><defs
     id="defs1" /><g
     id="layer4"
     style="display:inline"
     transform="translate(-47.069076,-80.4881)"><path
       id="path1"
       style="display:inline;stroke-width:0.276017"
       d="M 96.623157 80.4881 A 49.554333 48.739296 0 0 0 47.069076 129.22724 A 49.554333 48.739296 0 0 0 96.623157 177.9669 A 49.554333 48.739296 0 0 0 146.17776 129.22724 A 49.554333 48.739296 0 0 0 96.623157 80.4881 z M 76.26626 110.70589 L 81.505217 110.70589 L 87.392713 126.80982 L 82.89583 126.80982 L 81.9455 124.08647 L 75.802723 124.08647 L 74.875647 126.80982 L 70.378764 126.80982 L 76.26626 110.70589 z M 89.224126 110.70589 L 96.548743 110.70589 C 101.20791 110.70589 104.6852 113.54765 104.6852 118.78137 C 104.6852 123.96772 101.20791 126.80982 96.548743 126.80982 L 89.224126 126.80982 L 89.224126 110.70589 z M 107.51293 110.70589 L 111.245 110.70589 L 116.62245 117.07656 L 122.00042 110.70589 L 125.73249 110.70589 L 125.73249 126.80982 L 121.2816 126.80982 L 121.2816 117.85791 L 116.99349 123.11547 L 116.25193 123.11547 L 111.96331 117.85791 L 111.96331 126.80982 L 107.51293 126.80982 L 107.51293 110.70589 z M 93.6745 114.63744 L 93.6745 122.87828 L 96.363225 122.87828 C 98.588495 122.87828 100.0953 121.38639 100.0953 118.78137 C 100.0953 116.12899 98.588495 114.63744 96.363225 114.63744 L 93.6745 114.63744 z M 78.885739 115.18211 L 76.915316 120.74714 L 80.856161 120.74714 L 78.885739 115.18211 z M 79.514641 130.99354 C 84.54047 130.99354 88.353895 134.59671 88.353895 139.44884 C 88.353895 144.30097 84.54047 147.90414 79.514641 147.90414 C 74.488812 147.90414 70.700192 144.30097 70.700192 139.44884 C 70.700192 134.59671 74.488812 130.99354 79.514641 130.99354 z M 115.35173 130.99354 C 118.2056 130.99354 120.4789 132.00283 122.19627 133.4921 L 119.99899 136.83091 C 118.93826 136.06226 117.59941 135.24548 115.52846 135.24548 C 112.87665 135.24548 111.20986 137.14286 111.20986 139.40078 C 111.20986 141.65871 112.87665 143.5566 115.52846 143.5566 C 117.59941 143.5566 118.93826 142.73983 119.99899 141.97117 L 122.19627 145.30998 C 120.4789 146.79925 118.2056 147.80802 115.35173 147.80802 C 110.12386 147.80802 106.18433 144.18085 106.18433 139.40078 C 106.18433 134.62071 110.12386 130.99354 115.35173 130.99354 z M 97.571937 131.01783 C 100.02171 131.01783 102.47177 131.69037 103.81032 132.31491 L 102.44657 136.13432 C 101.08278 135.41371 99.061994 134.83724 97.369882 134.83724 C 96.0566 134.83724 95.501262 135.24521 95.501262 135.91779 C 95.501262 136.44624 95.854522 136.71087 96.763717 136.97509 L 99.718576 137.79158 C 102.92601 138.68033 104.21443 140.19383 104.21443 142.4037 C 104.21443 145.55038 101.36067 147.80802 96.940967 147.80802 C 94.364914 147.80802 91.662349 146.99156 90.525855 146.39105 L 91.66222 142.35564 C 93.000757 143.22038 94.945471 143.98862 97.016415 143.98862 C 98.430718 143.98862 99.26434 143.58029 99.26434 142.69154 C 99.26434 142.11504 98.759271 141.75505 97.698544 141.46681 L 94.971062 140.72215 C 92.066688 139.92947 90.601819 138.53611 90.601819 136.15809 C 90.601819 133.27564 92.975449 131.01783 97.571937 131.01783 z M 79.514641 135.3416 C 77.140631 135.3416 75.422901 137.11886 75.422901 139.44884 C 75.422901 141.77883 77.140631 143.5566 79.514641 143.5566 C 81.913906 143.5566 83.605864 141.77883 83.605864 139.44884 C 83.605864 137.11886 81.913906 135.3416 79.514641 135.3416 z " /></g></svg>
