<?xml version="1.0" encoding="UTF-8" standalone="no"?>
<!-- Created with Inkscape (http://www.inkscape.org/) -->

<svg
   width="792.12158mm"
   height="98.21434mm"
   viewBox="0 0 792.12158 98.214341"
   version="1.1"
   id="svg1"
   xml:space="preserve"
   sodipodi:docname="ADM-OSC-logo+text2-black.svg"
   inkscape:version="1.4 (86a8ad7, 2024-10-11)"
   xmlns:inkscape="http://www.inkscape.org/namespaces/inkscape"
   xmlns:sodipodi="http://sodipodi.sourceforge.net/DTD/sodipodi-0.dtd"
   xmlns="http://www.w3.org/2000/svg"
   xmlns:svg="http://www.w3.org/2000/svg"><sodipodi:namedview
     id="namedview1"
     pagecolor="#ffffff"
     bordercolor="#000000"
     borderopacity="0.25"
     inkscape:showpageshadow="2"
     inkscape:pageopacity="0.0"
     inkscape:pagecheckerboard="true"
     inkscape:deskcolor="#d1d1d1"
     inkscape:document-units="mm"
     inkscape:zoom="0.29920241"
     inkscape:cx="1818.1672"
     inkscape:cy="793.77702"
     inkscape:window-width="1920"
     inkscape:window-height="1171"
     inkscape:window-x="-9"
     inkscape:window-y="-9"
     inkscape:window-maximized="1"
     inkscape:current-layer="layer1"
     showborder="true" /><defs
     id="defs1"><rect
       x="379.7467"
       y="16.985476"
       width="901.44342"
       height="376.10696"
       id="rect1" /></defs><g
     id="layer4"
     style="display:inline;fill:#000000;fill-opacity:1"
     transform="translate(-47.069076,-80.4881)"
     inkscape:label="logo"><path
       id="path1"
       style="display:inline;fill:#000000;fill-opacity:1;stroke-width:0.276017"
       d="M 96.623157,80.4881 A 49.554333,48.739296 0 0 0 47.069076,129.22724 49.554333,48.739296 0 0 0 96.623157,177.9669 49.554333,48.739296 0 0 0 146.17776,129.22724 49.554333,48.739296 0 0 0 96.623157,80.4881 Z M 76.26626,110.70589 h 5.238957 l 5.887496,16.10393 H 82.89583 l -0.95033,-2.72335 h -6.142777 l -0.927076,2.72335 h -4.496883 z m 12.957866,0 h 7.324617 c 4.659167,0 8.136457,2.84176 8.136457,8.07548 0,5.18635 -3.47729,8.02845 -8.136457,8.02845 h -7.324617 z m 18.288804,0 h 3.73207 l 5.37745,6.37067 5.37797,-6.37067 h 3.73207 v 16.10393 h -4.45089 v -8.95191 l -4.28811,5.25756 h -0.74156 l -4.28862,-5.25756 v 8.95191 h -4.45038 z m -13.83843,3.93155 v 8.24084 h 2.688725 c 2.22527,0 3.732075,-1.49189 3.732075,-4.09691 0,-2.65238 -1.506805,-4.14393 -3.732075,-4.14393 z m -14.788761,0.54467 -1.970423,5.56503 h 3.940845 z m 0.628902,15.81143 c 5.025829,0 8.839254,3.60317 8.839254,8.4553 0,4.85213 -3.813425,8.4553 -8.839254,8.4553 -5.025829,0 -8.814449,-3.60317 -8.814449,-8.4553 0,-4.85213 3.78862,-8.4553 8.814449,-8.4553 z m 35.837089,0 c 2.85387,0 5.12717,1.00929 6.84454,2.49856 l -2.19728,3.33881 c -1.06073,-0.76865 -2.39958,-1.58543 -4.47053,-1.58543 -2.65181,0 -4.3186,1.89738 -4.3186,4.1553 0,2.25793 1.66679,4.15582 4.3186,4.15582 2.07095,0 3.4098,-0.81677 4.47053,-1.58543 l 2.19728,3.33881 c -1.71737,1.48927 -3.99067,2.49804 -6.84454,2.49804 -5.22787,0 -9.1674,-3.62717 -9.1674,-8.40724 0,-4.78007 3.93953,-8.40724 9.1674,-8.40724 z m -17.779793,0.0243 c 2.449773,0 4.899833,0.67254 6.238383,1.29708 l -1.36375,3.81941 c -1.36379,-0.72061 -3.384576,-1.29708 -5.076688,-1.29708 -1.313282,0 -1.86862,0.40797 -1.86862,1.08055 0,0.52845 0.35326,0.79308 1.262455,1.0573 l 2.954859,0.81649 c 3.207434,0.88875 4.495854,2.40225 4.495854,4.61212 0,3.14668 -2.85376,5.40432 -7.273463,5.40432 -2.576053,0 -5.278618,-0.81646 -6.415112,-1.41697 l 1.136365,-4.03541 c 1.338537,0.86474 3.283251,1.63298 5.354195,1.63298 1.414303,0 2.247925,-0.40833 2.247925,-1.29708 0,-0.5765 -0.505069,-0.93649 -1.565796,-1.22473 l -2.727482,-0.74466 c -2.904374,-0.79268 -4.369243,-2.18604 -4.369243,-4.56406 0,-2.88245 2.37363,-5.14026 6.970118,-5.14026 z m -18.057296,4.32377 c -2.37401,0 -4.09174,1.77726 -4.09174,4.10724 0,2.32999 1.71773,4.10776 4.09174,4.10776 2.399265,0 4.091223,-1.77777 4.091223,-4.10776 0,-2.32998 -1.691958,-4.10724 -4.091223,-4.10724 z" /></g><g
     inkscape:groupmode="layer"
     id="layer1"
     inkscape:label="text"><path
       d="m 404.03409,35.706328 -24.384,65.280002 h 18.624 l 3.84,-11.040002 h 25.44 l 3.936,11.040002 h 18.624 l -24.384,-65.280002 z m 2.688,40.704 8.16,-22.56 8.16,22.56 z m 81.31198,-40.704 h -30.336 v 65.280002 h 30.336 c 19.296,0 33.696,-11.520002 33.696,-32.544002 0,-21.216 -14.4,-32.736 -33.696,-32.736 z m -0.768,49.344 h -11.136 v -33.408 h 11.136 c 9.216,0 15.456,6.048 15.456,16.8 0,10.56 -6.24,16.608 -15.456,16.608 z m 103.19996,-20.352 v 36.288002 h 18.432 V 35.706328 h -15.456 l -22.272,25.824 -22.272,-25.824 h -15.456 v 65.280002 h 18.432 V 64.698328 l 17.76,21.312 h 3.072 z m 72.19203,0 h -40.32 v 14.304 h 40.32 z m 43.29598,37.632002 c 19.104,0 33.6,-14.400002 33.6,-33.792002 0,-19.392 -14.496,-33.792 -33.6,-33.792 -19.104,0 -33.504,14.4 -33.504,33.792 0,19.392 14.4,33.792002 33.504,33.792002 z m 0,-17.376002 c -9.024,0 -15.552,-7.104 -15.552,-16.416 0,-9.312 6.528,-16.416 15.552,-16.416 9.12,0 15.552,7.104 15.552,16.416 0,9.312 -6.432,16.416 -15.552,16.416 z m 46.17601,-4.8 -4.32,16.128 c 4.32,2.4 14.592,5.664002 24.384,5.664002 16.8,0 27.648,-9.024002 27.648,-21.600002 0,-8.832 -4.896,-14.88 -17.088,-18.432 l -11.232,-3.264 c -3.456,-1.056 -4.8,-2.112 -4.8,-4.224 0,-2.688 2.112,-4.32 7.104,-4.32 6.432,0 14.112,2.304 19.296,5.184 l 5.184,-15.264 c -5.088,-2.496 -14.4,-5.184 -23.712,-5.184 -17.472,0 -26.496,9.024 -26.496,20.544 0,9.504 5.568,15.072 16.608,18.24 l 10.368,2.976 c 4.032,1.152 5.952,2.592 5.952,4.896 0,3.552 -3.168,5.184 -8.544,5.184 -7.872,0 -15.264,-3.072 -20.352,-6.528 z m 74.30395,-11.808 c 0,-9.024 6.336,-16.608 16.416,-16.608 7.872,0 12.96,3.264 16.992,6.336 l 8.352,-13.344 c -6.528,-5.952 -15.168,-9.984 -26.016,-9.984 -19.872,0 -34.848,14.496 -34.848,33.6 0,19.104 14.976,33.600002 34.848,33.600002 10.848,0 19.488,-4.032002 26.016,-9.984002 l -8.352,-13.344 c -4.032,3.072 -9.12,6.336 -16.992,6.336 -10.08,0 -16.416,-7.584 -16.416,-16.608 z"
       id="text1"
       style="font-weight:800;font-size:96px;font-family:'HvDTrial Pluto Sans';-inkscape-font-specification:'HvDTrial Pluto Sans, Ultra-Bold';white-space:pre;fill:#000000;fill-opacity:1"
       transform="matrix(1.3904428,0,0,1.3904428,-415.05252,-46.186795)"
       aria-label="ADM-OSC" /></g></svg>
